<svg xmlns="http://www.w3.org/2000/svg" viewBox="0 0 20.24 18.01"><g data-name="Camada 2"><path d="M20 15.48L11.6.85a1.62 1.62 0 00-.9-.75 1.77 1.77 0 00-1.16 0 1.58 1.58 0 00-.9.75L.2 15.48a1.82 1.82 0 00-.2 1.14 1.69 1.69 0 00.56 1 1.61 1.61 0 001.12.38h16.88a1.61 1.61 0 001.09-.41 1.69 1.69 0 00.56-1 1.76 1.76 0 00-.21-1.11zm-9.91-3a1.64 1.64 0 011.62 1.62 1.53 1.53 0 01-.48 1.14 1.56 1.56 0 01-1.14.48 1.64 1.64 0 01-1.59-1.65 1.56 1.56 0 01.5-1.14 1.53 1.53 0 011.12-.48zM8.57 6.65a.45.45 0 01.12-.33A.44.44 0 019 6.2h2.25a.41.41 0 01.3.12.45.45 0 01.13.33l-.29 4.78a.37.37 0 01-.12.27.41.41 0 01-.3.12h-1.7A.4.4 0 019 11.7a.35.35 0 01-.13-.27z" data-name="Camada 1"/></g></svg>