<svg xmlns="http://www.w3.org/2000/svg" viewBox="0 0 98.76 35.43"><g data-name="Camada 2"><path d="M75.67 22a4.62 4.62 0 104.65 4.62A4.63 4.63 0 0075.67 22zm0 7.74a3.13 3.13 0 113.14-3.12 3.14 3.14 0 01-3.14 3.14zm22.46-9.28l-.51-.21-.62-9.86a1 1 0 00-1-.94H67.54l-1.41-8.14a1 1 0 00-.94-.82C63 .38 43.45-.58 39.9.53 33.07 2.67 26.55 7.89 25.17 9c-2.17.2-14 1.14-18.17 2.21a7.49 7.49 0 00-5.43 6.54 5.45 5.45 0 00-1.42 2.4 12.62 12.62 0 00.45 5.12c.17.39.64 1 6.45 2.92a8.84 8.84 0 0017.22.74h42.87a8.85 8.85 0 0017.23-.74c1.91-.08 9.32-.45 11.31-1.25 2.55-1 3-5 3.07-5.44a1 1 0 00-.62-1.02zm-2.57-1.09a1.47 1.47 0 01-.56-.17 51.92 51.92 0 01-2.08-5.52l2.22-.89zM65 19.46c-.27.89-1.73 4.75-2 5.59H47.84l.49-3.28v-.06c0-.05-.41-5.6-.37-6.73 0-.82.1-2.17.14-2.88q3.46-.15 7.54-.37l1.11-.06c.49 0 2.59-.8 6.23-2.38a.81.81 0 00.18-.12 6.18 6.18 0 002.57 2.14 34.9 34.9 0 01-.73 8.15zm-16.42-8.87V4.24c4.9 0 10.52.22 12.28.29l.94 3.64c-2.26 1-4.63 1.93-5.09 2l-1.15.06c-2.56.15-4.88.27-6.98.36zm-41.9 2.82a12.08 12.08 0 011.73.33 17.19 17.19 0 01-1.74 2A20.56 20.56 0 014.24 17L4 16.2a5 5 0 012.68-2.79zM2.85 24.55c-.22-.1-.4-.18-.52-.25-.07-.28-.15-.77-.22-1.31l.47-1.06 1 1.84c-.22.28-.5.55-.73.78zm12.84 8.89a6.81 6.81 0 116.85-6.8 6.83 6.83 0 01-6.85 6.8zm60 0a6.81 6.81 0 116.84-6.8 6.83 6.83 0 01-6.86 6.8zm8.82-7.24a8.84 8.84 0 00-17.67.44v.3H24.53v-.3a8.84 8.84 0 00-17.66-.58 64.04 64.04 0 01-3-1.09l.76-.77a.52.52 0 00.08-.59L3 20.57a.51.51 0 00-.9 0v.06a.19.19 0 010-.08A3.82 3.82 0 013.17 19a1 1 0 00.33-.7v-.21a.49.49 0 00.4.21.54.54 0 00.21-.05 31 31 0 003.15-1.62 25.54 25.54 0 002.38-2.83.5.5 0 00-.24-.8l-.5-.13c5.36-1 16.62-1.83 16.74-1.84a1.06 1.06 0 00.59-.24c.07-.06 7.13-6.09 14.27-8.32 2.6-.82 17.35-.31 23.79 0 0 0 1.42 8.29 1.42 8.34a6.54 6.54 0 01-2.29-2.1c0-.08-1.24-5-1.24-5a.74.74 0 00-.69-.56c-.66 0-16.15-.71-20.34 0s-12.66 7-13 7.25a.75.75 0 00-.29.68l-.1 9.45a.36.36 0 000 .11 16.08 16.08 0 011.41 4.77.25.25 0 00.25.21h33.7a.24.24 0 00.23-.16c.08-.19 1.83-4.77 2.13-5.79a35.23 35.23 0 00.75-8.27 1 1 0 00.46.12h28.38v.29l-3 1.19a.49.49 0 00-.28.62c.73 2.18 2 5.9 2.45 6.34a2.76 2.76 0 001.34.53v.6h-.35a.5.5 0 00-.41.2l-3.24 4.44c-2.14.19-4.96.37-7.09.47zM37.32 12.37c2.8 0 6.22-.08 10.28-.25 0 .72-.11 2-.14 2.84 0 1.13.33 6.29.37 6.76l-.5 3.33H29.64a16.56 16.56 0 00-1.4-4.64l.14-8.76c1.23.48 4.18.72 8.94.72zm-7-1.8c2.53-1.78 8.07-5.52 11.06-6a47.48 47.48 0 016.17-.31v6.39c-10.29.4-15.04.22-17.2-.08zm64.61 14.52a9.75 9.75 0 01-1.9.41l2.53-3.5h1.08c-.24 1.16-.8 2.72-1.71 3.09zM15.69 22a4.62 4.62 0 104.65 4.62A4.64 4.64 0 0015.69 22zm0 7.74a3.13 3.13 0 113.15-3.12 3.13 3.13 0 01-3.15 3.14z" data-name="Camada 1"/></g></svg>