<svg xmlns="http://www.w3.org/2000/svg" viewBox="0 0 16 16"><g data-name="Camada 2"><path d="M15.78 13.84a.76.76 0 010 1.07l-.87.87a.76.76 0 01-1.07 0l-3.12-3.12a.73.73 0 01-.22-.54v-.5a6.29 6.29 0 01-4 1.38 6.26 6.26 0 01-3.27-.88A6.56 6.56 0 01.87 9.77 6.35 6.35 0 010 6.5a6.35 6.35 0 01.87-3.27A6.56 6.56 0 013.23.88 6.26 6.26 0 016.5 0a6.26 6.26 0 013.27.88 6.56 6.56 0 012.36 2.35A6.35 6.35 0 0113 6.5a6.34 6.34 0 01-1.37 4h.5a.73.73 0 01.53.22zM6.5 10.5A4 4 0 008.52 3a4 4 0 00-4 6.94 4 4 0 001.98.56z" data-name="Camada 1"/></g></svg>