<svg xmlns="http://www.w3.org/2000/svg" viewBox="0 0 25.19 25.19"><g data-name="Camada 2"><path d="M12.59 4.88a4.85 4.85 0 014.88 4.87 4.85 4.85 0 01-4.88 4.87 4.85 4.85 0 01-4.87-4.87 4.85 4.85 0 014.87-4.87zm0 7.31A2.42 2.42 0 0015 9.75 2.44 2.44 0 0010.87 8a2.34 2.34 0 00-.71 1.73 2.42 2.42 0 002.43 2.44zm0-12.19a12.25 12.25 0 016.3 1.7 12.84 12.84 0 014.6 4.6 12.24 12.24 0 011.7 6.29 12.25 12.25 0 01-1.7 6.3 12.84 12.84 0 01-4.6 4.6 12.25 12.25 0 01-6.3 1.7 12.24 12.24 0 01-6.29-1.7 12.84 12.84 0 01-4.6-4.6 12.25 12.25 0 01-1.7-6.3A12.24 12.24 0 011.7 6.3a12.84 12.84 0 014.6-4.6A12.24 12.24 0 0112.59 0zm0 22.75a10 10 0 003.56-.63 10.48 10.48 0 003.05-1.81 4.14 4.14 0 00-1.5-1.44 4.5 4.5 0 00-2-.59 9.92 9.92 0 01-3.07.51 9.92 9.92 0 01-3.07-.51 4.56 4.56 0 00-2.06.59A4 4 0 006 20.31a10.48 10.48 0 003 1.81 10 10 0 003.59.63zm8.28-4.27a9.93 9.93 0 001.88-5.89 9.87 9.87 0 00-1.37-5.07 10.23 10.23 0 00-3.71-3.71 9.81 9.81 0 00-5.08-1.37 9.77 9.77 0 00-5.07 1.37 10.15 10.15 0 00-3.71 3.71 9.77 9.77 0 00-1.37 5.07 9.87 9.87 0 001.88 5.89 7.14 7.14 0 012.36-1.93 6.5 6.5 0 013-.71 2.74 2.74 0 01.71.16 8.28 8.28 0 002.23.35 8.28 8.28 0 002.21-.35 2.66 2.66 0 01.71-.16 6.5 6.5 0 013 .71 7.14 7.14 0 012.33 1.93z" data-name="Camada 1"/></g></svg>