<svg xmlns="http://www.w3.org/2000/svg" viewBox="0 0 22.75 22.75"><g data-name="Camada 2"><path d="M19.35 3.3A11.75 11.75 0 0121.86 7a10.93 10.93 0 01-.66 9.93A11.46 11.46 0 0117 21a11 11 0 01-5.66 1.53A11 11 0 016 21.18l-6 1.57 1.62-5.84A11 11 0 01.1 11.27a10.93 10.93 0 011.52-5.63 11.46 11.46 0 014.12-4.12A10.94 10.94 0 0111.38 0a11.14 11.14 0 014.29.86 12 12 0 013.68 2.44zm-8 17.37a9.31 9.31 0 004.75-1.27 9.77 9.77 0 003.48-3.4 9 9 0 001.29-4.7 8.65 8.65 0 00-.76-3.55A10 10 0 0018 4.65a9.22 9.22 0 00-6.62-2.77 9.06 9.06 0 00-4.7 1.27 9.48 9.48 0 00-3.43 3.43A9 9 0 002 11.27a9 9 0 001.47 5l.21.36-1 3.45 3.56-.92.35.21a9.08 9.08 0 004.79 1.3zm5.12-7.06l.16.1a1 1 0 01.4.25 1.31 1.31 0 010 .51 2.72 2.72 0 01-.21.84 2 2 0 01-.81.86 2.6 2.6 0 01-1.09.49 5.23 5.23 0 01-1.37 0 11.11 11.11 0 01-2-.71 11.51 11.51 0 01-4.72-4.17l-.11-.1a5.14 5.14 0 01-1.08-2.89 3.19 3.19 0 01.91-2.29 1.06 1.06 0 01.76-.36H8a.62.62 0 01.33.08.69.69 0 01.23.38l.86 2.08a.57.57 0 01.06.51 3.47 3.47 0 01-.66.91 1.38 1.38 0 00-.26.33.27.27 0 00.1.28 6.77 6.77 0 001.68 2.09 13.3 13.3 0 002.1 1.2c.27.13.48.11.61-.06.44-.5.75-.88.91-1.11s.16-.21.26-.21a1.22 1.22 0 01.35.06c.28.12.92.42 1.93.93z" data-name="Camada 1"/></g></svg>