<svg class="svg-sprites" id="skin-sprite" xmlns="http://www.w3.org/2000/svg" xmlns:xlink="http://www.w3.org/1999/xlink">
    <symbol viewBox="0 0 20.24 18.01" id="z-alert" xmlns="http://www.w3.org/2000/svg"><g data-name="Camada 2"><path d="M20 15.48L11.6.85a1.62 1.62 0 00-.9-.75 1.77 1.77 0 00-1.16 0 1.58 1.58 0 00-.9.75L.2 15.48a1.82 1.82 0 00-.2 1.14 1.69 1.69 0 00.56 1 1.61 1.61 0 001.12.38h16.88a1.61 1.61 0 001.09-.41 1.69 1.69 0 00.56-1 1.76 1.76 0 00-.21-1.11zm-9.91-3a1.64 1.64 0 011.62 1.62 1.53 1.53 0 01-.48 1.14 1.56 1.56 0 01-1.14.48 1.64 1.64 0 01-1.59-1.65 1.56 1.56 0 01.5-1.14 1.53 1.53 0 011.12-.48zM8.57 6.65a.45.45 0 01.12-.33A.44.44 0 019 6.2h2.25a.41.41 0 01.3.12.45.45 0 01.13.33l-.29 4.78a.37.37 0 01-.12.27.41.41 0 01-.3.12h-1.7A.4.4 0 019 11.7a.35.35 0 01-.13-.27z" data-name="Camada 1"/></g></symbol>
    <symbol viewBox="0 0 98.76 35.43" id="z-cart" xmlns="http://www.w3.org/2000/svg"><g data-name="Camada 2"><path d="M75.67 22a4.62 4.62 0 104.65 4.62A4.63 4.63 0 0075.67 22zm0 7.74a3.13 3.13 0 113.14-3.12 3.14 3.14 0 01-3.14 3.14zm22.46-9.28l-.51-.21-.62-9.86a1 1 0 00-1-.94H67.54l-1.41-8.14a1 1 0 00-.94-.82C63 .38 43.45-.58 39.9.53 33.07 2.67 26.55 7.89 25.17 9c-2.17.2-14 1.14-18.17 2.21a7.49 7.49 0 00-5.43 6.54 5.45 5.45 0 00-1.42 2.4 12.62 12.62 0 00.45 5.12c.17.39.64 1 6.45 2.92a8.84 8.84 0 0017.22.74h42.87a8.85 8.85 0 0017.23-.74c1.91-.08 9.32-.45 11.31-1.25 2.55-1 3-5 3.07-5.44a1 1 0 00-.62-1.02zm-2.57-1.09a1.47 1.47 0 01-.56-.17 51.92 51.92 0 01-2.08-5.52l2.22-.89zM65 19.46c-.27.89-1.73 4.75-2 5.59H47.84l.49-3.28v-.06c0-.05-.41-5.6-.37-6.73 0-.82.1-2.17.14-2.88q3.46-.15 7.54-.37l1.11-.06c.49 0 2.59-.8 6.23-2.38a.81.81 0 00.18-.12 6.18 6.18 0 002.57 2.14 34.9 34.9 0 01-.73 8.15zm-16.42-8.87V4.24c4.9 0 10.52.22 12.28.29l.94 3.64c-2.26 1-4.63 1.93-5.09 2l-1.15.06c-2.56.15-4.88.27-6.98.36zm-41.9 2.82a12.08 12.08 0 011.73.33 17.19 17.19 0 01-1.74 2A20.56 20.56 0 014.24 17L4 16.2a5 5 0 012.68-2.79zM2.85 24.55c-.22-.1-.4-.18-.52-.25-.07-.28-.15-.77-.22-1.31l.47-1.06 1 1.84c-.22.28-.5.55-.73.78zm12.84 8.89a6.81 6.81 0 116.85-6.8 6.83 6.83 0 01-6.85 6.8zm60 0a6.81 6.81 0 116.84-6.8 6.83 6.83 0 01-6.86 6.8zm8.82-7.24a8.84 8.84 0 00-17.67.44v.3H24.53v-.3a8.84 8.84 0 00-17.66-.58 64.04 64.04 0 01-3-1.09l.76-.77a.52.52 0 00.08-.59L3 20.57a.51.51 0 00-.9 0v.06a.19.19 0 010-.08A3.82 3.82 0 013.17 19a1 1 0 00.33-.7v-.21a.49.49 0 00.4.21.54.54 0 00.21-.05 31 31 0 003.15-1.62 25.54 25.54 0 002.38-2.83.5.5 0 00-.24-.8l-.5-.13c5.36-1 16.62-1.83 16.74-1.84a1.06 1.06 0 00.59-.24c.07-.06 7.13-6.09 14.27-8.32 2.6-.82 17.35-.31 23.79 0 0 0 1.42 8.29 1.42 8.34a6.54 6.54 0 01-2.29-2.1c0-.08-1.24-5-1.24-5a.74.74 0 00-.69-.56c-.66 0-16.15-.71-20.34 0s-12.66 7-13 7.25a.75.75 0 00-.29.68l-.1 9.45a.36.36 0 000 .11 16.08 16.08 0 011.41 4.77.25.25 0 00.25.21h33.7a.24.24 0 00.23-.16c.08-.19 1.83-4.77 2.13-5.79a35.23 35.23 0 00.75-8.27 1 1 0 00.46.12h28.38v.29l-3 1.19a.49.49 0 00-.28.62c.73 2.18 2 5.9 2.45 6.34a2.76 2.76 0 001.34.53v.6h-.35a.5.5 0 00-.41.2l-3.24 4.44c-2.14.19-4.96.37-7.09.47zM37.32 12.37c2.8 0 6.22-.08 10.28-.25 0 .72-.11 2-.14 2.84 0 1.13.33 6.29.37 6.76l-.5 3.33H29.64a16.56 16.56 0 00-1.4-4.64l.14-8.76c1.23.48 4.18.72 8.94.72zm-7-1.8c2.53-1.78 8.07-5.52 11.06-6a47.48 47.48 0 016.17-.31v6.39c-10.29.4-15.04.22-17.2-.08zm64.61 14.52a9.75 9.75 0 01-1.9.41l2.53-3.5h1.08c-.24 1.16-.8 2.72-1.71 3.09zM15.69 22a4.62 4.62 0 104.65 4.62A4.64 4.64 0 0015.69 22zm0 7.74a3.13 3.13 0 113.15-3.12 3.13 3.13 0 01-3.15 3.14z" data-name="Camada 1"/></g></symbol>
    <symbol viewBox="0 0 19.25 18.73" id="z-next" xmlns="http://www.w3.org/2000/svg"><g data-name="Camada 2"><path d="M8.16 1.25a.94.94 0 00-.28.75 1.12 1.12 0 00.33.73l5.15 4.94H1A1 1 0 00.3 8a1 1 0 00-.3.73v1.37a1 1 0 00.3.74 1 1 0 00.73.3h12.33L8.21 16a1.1 1.1 0 00-.33.73 1 1 0 00.28.73l1 .94a1 1 0 00.73.3 1 1 0 00.73-.3L19 10.1a1 1 0 00.3-.73 1 1 0 00-.3-.73L10.61.3a1 1 0 00-.73-.3 1 1 0 00-.73.3z" data-name="Camada 1"/></g></symbol>
    <symbol viewBox="0 0 19.25 18.73" id="z-prev" xmlns="http://www.w3.org/2000/svg"><g data-name="Camada 2"><path d="M11.09 17.49a1 1 0 00.28-.73A1.1 1.1 0 0011 16l-5.11-4.91h12.33a1 1 0 00.73-.3 1 1 0 00.3-.74V8.68a1 1 0 00-1-1H5.89L11 2.71a1.12 1.12 0 00.37-.71.94.94 0 00-.28-.73L10.1.3a1 1 0 00-.73-.3 1 1 0 00-.73.3L.3 8.64a1 1 0 00-.3.73 1 1 0 00.3.73l8.34 8.33a1 1 0 00.73.3 1 1 0 00.73-.3z" data-name="Camada 1"/></g></symbol>
    <symbol viewBox="0 0 16 16" id="z-search" xmlns="http://www.w3.org/2000/svg"><g data-name="Camada 2"><path d="M15.78 13.84a.76.76 0 010 1.07l-.87.87a.76.76 0 01-1.07 0l-3.12-3.12a.73.73 0 01-.22-.54v-.5a6.29 6.29 0 01-4 1.38 6.26 6.26 0 01-3.27-.88A6.56 6.56 0 01.87 9.77 6.35 6.35 0 010 6.5a6.35 6.35 0 01.87-3.27A6.56 6.56 0 013.23.88 6.26 6.26 0 016.5 0a6.26 6.26 0 013.27.88 6.56 6.56 0 012.36 2.35A6.35 6.35 0 0113 6.5a6.34 6.34 0 01-1.37 4h.5a.73.73 0 01.53.22zM6.5 10.5A4 4 0 008.52 3a4 4 0 00-4 6.94 4 4 0 001.98.56z" data-name="Camada 1"/></g></symbol>
    <symbol viewBox="0 0 25.19 25.19" id="z-user" xmlns="http://www.w3.org/2000/svg"><g data-name="Camada 2"><path d="M12.59 4.88a4.85 4.85 0 014.88 4.87 4.85 4.85 0 01-4.88 4.87 4.85 4.85 0 01-4.87-4.87 4.85 4.85 0 014.87-4.87zm0 7.31A2.42 2.42 0 0015 9.75 2.44 2.44 0 0010.87 8a2.34 2.34 0 00-.71 1.73 2.42 2.42 0 002.43 2.44zm0-12.19a12.25 12.25 0 016.3 1.7 12.84 12.84 0 014.6 4.6 12.24 12.24 0 011.7 6.29 12.25 12.25 0 01-1.7 6.3 12.84 12.84 0 01-4.6 4.6 12.25 12.25 0 01-6.3 1.7 12.24 12.24 0 01-6.29-1.7 12.84 12.84 0 01-4.6-4.6 12.25 12.25 0 01-1.7-6.3A12.24 12.24 0 011.7 6.3a12.84 12.84 0 014.6-4.6A12.24 12.24 0 0112.59 0zm0 22.75a10 10 0 003.56-.63 10.48 10.48 0 003.05-1.81 4.14 4.14 0 00-1.5-1.44 4.5 4.5 0 00-2-.59 9.92 9.92 0 01-3.07.51 9.92 9.92 0 01-3.07-.51 4.56 4.56 0 00-2.06.59A4 4 0 006 20.31a10.48 10.48 0 003 1.81 10 10 0 003.59.63zm8.28-4.27a9.93 9.93 0 001.88-5.89 9.87 9.87 0 00-1.37-5.07 10.23 10.23 0 00-3.71-3.71 9.81 9.81 0 00-5.08-1.37 9.77 9.77 0 00-5.07 1.37 10.15 10.15 0 00-3.71 3.71 9.77 9.77 0 00-1.37 5.07 9.87 9.87 0 001.88 5.89 7.14 7.14 0 012.36-1.93 6.5 6.5 0 013-.71 2.74 2.74 0 01.71.16 8.28 8.28 0 002.23.35 8.28 8.28 0 002.21-.35 2.66 2.66 0 01.71-.16 6.5 6.5 0 013 .71 7.14 7.14 0 012.33 1.93z" data-name="Camada 1"/></g></symbol>
    <symbol viewBox="0 0 22.75 22.75" id="z-whatsapp" xmlns="http://www.w3.org/2000/svg"><g data-name="Camada 2"><path d="M19.35 3.3A11.75 11.75 0 0121.86 7a10.93 10.93 0 01-.66 9.93A11.46 11.46 0 0117 21a11 11 0 01-5.66 1.53A11 11 0 016 21.18l-6 1.57 1.62-5.84A11 11 0 01.1 11.27a10.93 10.93 0 011.52-5.63 11.46 11.46 0 014.12-4.12A10.94 10.94 0 0111.38 0a11.14 11.14 0 014.29.86 12 12 0 013.68 2.44zm-8 17.37a9.31 9.31 0 004.75-1.27 9.77 9.77 0 003.48-3.4 9 9 0 001.29-4.7 8.65 8.65 0 00-.76-3.55A10 10 0 0018 4.65a9.22 9.22 0 00-6.62-2.77 9.06 9.06 0 00-4.7 1.27 9.48 9.48 0 00-3.43 3.43A9 9 0 002 11.27a9 9 0 001.47 5l.21.36-1 3.45 3.56-.92.35.21a9.08 9.08 0 004.79 1.3zm5.12-7.06l.16.1a1 1 0 01.4.25 1.31 1.31 0 010 .51 2.72 2.72 0 01-.21.84 2 2 0 01-.81.86 2.6 2.6 0 01-1.09.49 5.23 5.23 0 01-1.37 0 11.11 11.11 0 01-2-.71 11.51 11.51 0 01-4.72-4.17l-.11-.1a5.14 5.14 0 01-1.08-2.89 3.19 3.19 0 01.91-2.29 1.06 1.06 0 01.76-.36H8a.62.62 0 01.33.08.69.69 0 01.23.38l.86 2.08a.57.57 0 01.06.51 3.47 3.47 0 01-.66.91 1.38 1.38 0 00-.26.33.27.27 0 00.1.28 6.77 6.77 0 001.68 2.09 13.3 13.3 0 002.1 1.2c.27.13.48.11.61-.06.44-.5.75-.88.91-1.11s.16-.21.26-.21a1.22 1.22 0 01.35.06c.28.12.92.42 1.93.93z" data-name="Camada 1"/></g></symbol>
</svg>