<!-- SVG Sprite -->
<svg id="svg-sprite" class="svg-sprites">
    <!-- Gradients -->
    <defs>
        <!-- Horizontais -->
        <linearGradient id="color1_h" x1="0%" y1="0%" x2="100%" y2="0%"><stop offset="0%" stop-color="@bg(1)" /><stop offset="100%" stop-color="@bg(1:hover)" /></linearGradient>
        <linearGradient id="color2_h" x1="0%" y1="0%" x2="100%" y2="0%"><stop offset="0%" stop-color="@bg(2)" /><stop offset="100%" stop-color="@bg(2:hover)" /></linearGradient>
        <linearGradient id="color3_h" x1="0%" y1="0%" x2="100%" y2="0%"><stop offset="0%" stop-color="@bg(3)" /><stop offset="100%" stop-color="@bg(3:hover)" /></linearGradient>
        <linearGradient id="button_h" x1="0%" y1="0%" x2="100%" y2="0%"><stop offset="0%" stop-color="@button(bg)" /><stop offset="100%" stop-color="@button(bg:hover)" /></linearGradient>
        <linearGradient id="timer__gradient" x1="0%" y1="0%" x2="100%" y2="0%"><stop offset="0%" stop-color="@bg(1)" /><stop offset="100%" stop-color="@bg(2)" /></linearGradient>
        <!-- Verticais -->
        <linearGradient id="color1_v" x1="0%" y1="0%" x2="0%" y2="100%"><stop offset="0%" stop-color="@bg(1)" /><stop offset="100%" stop-color="@bg(1:hover)" /></linearGradient>
        <linearGradient id="color2_v" x1="0%" y1="0%" x2="0%" y2="100%"><stop offset="0%" stop-color="@bg(2)" /><stop offset="100%" stop-color="@bg(2:hover)" /></linearGradient>
        <linearGradient id="color3_v" x1="0%" y1="0%" x2="0%" y2="100%"><stop offset="0%" stop-color="@bg(3)" /><stop offset="100%" stop-color="@bg(3:hover)" /></linearGradient>
        <linearGradient id="button_v" x1="0%" y1="0%" x2="0%" y2="100%"><stop offset="0%" stop-color="@button(bg)" /><stop offset="100%" stop-color="@button(bg:hover)" /></linearGradient>
    </defs>
    <!--
	Ícones Obrigatórios
	* É possível alterá-los, porém não altere o ID
	-->
    <symbol id="i-play" 		viewBox="0 0 16 16"><path d="M2.9,1C1.3,0.2,0,0.9,0,2.4v11.2c0,1.5,1.3,2.1,2.9,1.4l11.9-5.6c1.6-0.8,1.6-2,0-2.7L2.9,1z"/></symbol>
    <symbol id="i-list" 		viewBox="0 0 16 16"><path d="M14.4,3.2H1.6C0.7,3.2,0,2.5,0,1.6v0C0,0.7,0.7,0,1.6,0l12.8,0C15.3,0,16,0.7,16,1.6v0 C16,2.5,15.3,3.2,14.4,3.2z M16,14.4L16,14.4c0-0.9-0.7-1.6-1.6-1.6H1.6c-0.9,0-1.6,0.7-1.6,1.6v0C0,15.3,0.7,16,1.6,16h12.8 C15.3,16,16,15.3,16,14.4z M16,8L16,8c0-0.9-0.7-1.6-1.6-1.6H1.6C0.7,6.4,0,7.1,0,8v0c0,0.9,0.7,1.6,1.6,1.6h12.8 C15.3,9.6,16,8.9,16,8z"/></symbol>
    <symbol id="i-grid" 		viewBox="0 0 16 16"><path d="M3.2,1.6c0,0.9-0.7,1.6-1.6,1.6S0,2.5,0,1.6S0.7,0,1.6,0S3.2,0.7,3.2,1.6z M8,0 C7.1,0,6.4,0.7,6.4,1.6S7.1,3.2,8,3.2s1.6-0.7,1.6-1.6S8.9,0,8,0z M14.4,0c-0.9,0-1.6,0.7-1.6,1.6s0.7,1.6,1.6,1.6S16,2.5,16,1.6 S15.3,0,14.4,0z M1.6,6.4C0.7,6.4,0,7.1,0,8s0.7,1.6,1.6,1.6S3.2,8.9,3.2,8S2.5,6.4,1.6,6.4z M8,6.4C7.1,6.4,6.4,7.1,6.4,8 S7.1,9.6,8,9.6S9.6,8.9,9.6,8S8.9,6.4,8,6.4z M14.4,6.4c-0.9,0-1.6,0.7-1.6,1.6s0.7,1.6,1.6,1.6S16,8.9,16,8S15.3,6.4,14.4,6.4z M1.6,12.8c-0.9,0-1.6,0.7-1.6,1.6S0.7,16,1.6,16s1.6-0.7,1.6-1.6S2.5,12.8,1.6,12.8z M8,12.8c-0.9,0-1.6,0.7-1.6,1.6S7.1,16,8,16 s1.6-0.7,1.6-1.6S8.9,12.8,8,12.8z M14.4,12.8c-0.9,0-1.6,0.7-1.6,1.6s0.7,1.6,1.6,1.6s1.6-0.7,1.6-1.6S15.3,12.8,14.4,12.8z"/></symbol>
    <symbol id="i-success"      viewBox="0 0 16 16"><path d="M8,0C3.6,0,0,3.6,0,8c0,4.4,3.6,8,8,8c4.4,0,8-3.6,8-8S12.4,0,8,0z M7.4,12.7l-1-0.7l0,0L2.9,9.5l0.7-1 L7.1,11l4.7-6.5l1,0.7L7.4,12.7z"/></symbol>
    <symbol id="img-truck" 		viewBox="0 0 16 16"><path d="M1.1,12L8,16l6.9-4V4L8,0L1.1,4V12z M7.5,14.6l-2.3-1.3V7l2.3,1.3V14.6z M14,11.5l-5.5,3.2V8.3 L14,5.1V11.5z M13.5,4.3L8,7.5L5.7,6.1l5.3-3.4L13.5,4.3z M8,1.1l2,1.2L4.8,5.6L2.5,4.3L8,1.1z M2,5.1l2.3,1.3v6.4L2,11.5 C2,11.5,2,5.1,2,5.1z M13.2,8.5L10.5,10v2.4l2.7-1.5V8.5z"/></symbol>
    <symbol id="img-cupon" 		viewBox="0 0 16 16"><path d="M16,0.6C16,0.3,15.8,0,15.4,0H7.5C7.4,0,7.2,0.1,7.1,0.2L0.7,6.5C0.3,6.9,0,7.5,0,8.1 c0,0.6,0.2,1.2,0.7,1.6l5.6,5.6c0.4,0.4,1,0.7,1.6,0.7s1.2-0.2,1.6-0.7l6.4-6.5C16,8.8,16,8.6,16,8.4V0.6z M7.2,14.4L1.6,8.8 C1.4,8.6,1.3,8.4,1.3,8.1c0-0.3,0.1-0.5,0.3-0.7l0.3-0.3l7,7l-0.3,0.3C8.2,14.8,7.5,14.8,7.2,14.4z M9.7,13.3l-7-7l5-5h7v6.9 L9.7,13.3z M13.2,4.4c0-1-0.8-1.8-1.7-1.8S9.7,3.4,9.7,4.4s0.8,1.8,1.7,1.8S13.2,5.4,13.2,4.4z M11.4,4.9c-0.3,0-0.6-0.2-0.6-0.6 s0.2-0.6,0.6-0.6c0.3,0,0.6,0.2,0.6,0.6S11.7,4.9,11.4,4.9z"/></symbol>
    <symbol id="img-os-new" 	viewBox="0 0 16 16"><path d="M13.5,15.9c0,0.1-0.1,0.1-0.1,0.1c-0.1,0-0.1,0-0.2,0c0,0-0.1,0-0.1,0l-0.7-0.7l-0.7,0.7 c-0.1,0.1-0.2,0.1-0.3,0l-0.7-0.7l-0.7,0.7c-0.1,0.1-0.2,0.1-0.3,0l-0.7-0.7l-0.7,0.7c-0.1,0.1-0.2,0.1-0.3,0l-0.7-0.7l-0.7,0.7 c-0.1,0.1-0.2,0.1-0.3,0l-0.7-0.7l-0.7,0.7c-0.1,0.1-0.2,0.1-0.3,0l-0.7-0.7l-0.7,0.7c0,0,0,0-0.1,0c-0.1,0-0.1,0-0.2,0 c-0.1,0-0.1-0.1-0.1-0.1c0,0,0-0.1,0-0.1V2.2c0,0,0,0,0,0c0,0,0,0,0,0c0-0.4,0.3-0.7,0.7-0.7c0,0,0,0,0,0h2.3V2H3.2c0,0,0,0,0,0 C3.1,2,3,2.1,3,2.2c0,0,0,0,0,0c0,0,0,0,0,0v13l0.5-0.5c0,0,0.1-0.1,0.2-0.1s0.1,0,0.2,0.1l0.7,0.7l0.7-0.7c0,0,0.1-0.1,0.2-0.1 c0.1,0,0.1,0,0.2,0.1l0.7,0.7L7,14.8c0,0,0.1-0.1,0.2-0.1c0.1,0,0.1,0,0.2,0.1L8,15.5l0.7-0.7c0,0,0.1-0.1,0.2-0.1 c0.1,0,0.1,0,0.2,0.1l0.7,0.7l0.7-0.7c0,0,0.1-0.1,0.2-0.1c0.1,0,0.1,0,0.2,0.1l0.7,0.7l0.7-0.7c0,0,0.1-0.1,0.2-0.1 c0.1,0,0.1,0,0.2,0.1l0.5,0.5v-13C13,2.1,12.9,2,12.8,2h-2.3V1.6h2.3c0.4,0,0.7,0.3,0.7,0.7L13.5,15.9 C13.5,15.8,13.5,15.8,13.5,15.9z M10.2,10.1c-0.2,0-0.4-0.3-0.4-0.7c0-0.4,0.2-0.7,0.4-0.7s0.4,0.3,0.4,0.7 C10.6,9.8,10.4,10.1,10.2,10.1z M6.9,11c0,0.6,0.5,1.1,1.1,1.1c0.6,0,1.1-0.5,1.1-1.1c0-0.1,0.1-0.2,0.2-0.2c0.1,0,0.2,0.1,0.2,0.2 c0,0.8-0.7,1.5-1.5,1.5S6.5,11.8,6.5,11c0-0.1,0.1-0.2,0.2-0.2C6.8,10.7,6.9,10.8,6.9,11z M6.3,1.5l0.3-0.3l1.1,1.1L10,0l0.3,0.3 L7.8,3.1L6.3,1.5z M5.8,10.1c-0.2,0-0.4-0.3-0.4-0.7c0-0.4,0.2-0.7,0.4-0.7s0.4,0.3,0.4,0.7C6.3,9.8,6.1,10.1,5.8,10.1z"/></symbol>
    <symbol id="img-os-ok" 		viewBox="0 0 16 16"><path d="M15.7,15.5H0.3c-0.2,0-0.3-0.1-0.3-0.3v-10c0,0,0,0,0,0v0c0,0,0,0,0,0c0,0,0,0,0-0.1l1.8-4.5c0,0,0,0,0,0 c0-0.1,0.1-0.2,0.2-0.2c0,0,0,0,0,0c0,0,0,0,0,0h11.8c0,0,0,0,0,0c0,0,0,0,0,0c0.1,0,0.2,0.1,0.2,0.2c0,0,0,0,0,0L16,5.1 c0,0,0,0,0,0.1c0,0,0,0,0,0v0c0,0,0,0,0,0v10C16,15.4,15.9,15.5,15.7,15.5z M2.3,1L0.7,4.9h5.6L6.8,1C6.8,1,2.3,1,2.3,1z M7.7,1H7.4 L7,4.9h0.7V1z M8.6,1H8.3v3.9H9L8.6,1z M9.1,5.5H6.9v0.7l1-0.3c0,0,0,0,0,0c0,0,0,0,0.1,0c0,0,0,0,0.1,0c0,0,0,0,0,0l1,0.3L9.1,5.5 L9.1,5.5z M13.7,1H9.2l0.4,3.9h5.6L13.7,1z M15.4,5.5H9.7v1.1c0,0,0,0,0,0c0,0,0,0,0,0c0,0,0,0,0,0c0,0.1-0.1,0.1-0.1,0.1 c0,0,0,0,0,0c0,0-0.1,0-0.2,0c0,0-0.1,0-0.1,0L8,6.5L6.7,6.9c0,0-0.1,0-0.1,0c-0.1,0-0.1,0-0.2,0c0,0,0,0,0,0c0,0-0.1-0.1-0.1-0.1 c0,0,0,0,0,0c0,0,0,0,0,0c0,0,0,0,0,0V5.5H0.6V15h14.8h0V5.5z M11,10.2c-0.3,0-0.6-0.4-0.6-0.9s0.3-0.9,0.6-0.9 c0.3,0,0.6,0.4,0.6,0.9S11.3,10.2,11,10.2z M8,13.5c-1.1,0-2.1-0.9-2.1-2.1c0-0.2,0.1-0.3,0.3-0.3c0.2,0,0.3,0.1,0.3,0.3 c0,0.8,0.7,1.5,1.5,1.5s1.5-0.7,1.5-1.5c0-0.2,0.1-0.3,0.3-0.3s0.3,0.1,0.3,0.3C10.1,12.6,9.1,13.5,8,13.5z M5,10.2 c-0.3,0-0.6-0.4-0.6-0.9S4.7,8.5,5,8.5c0.3,0,0.6,0.4,0.6,0.9S5.4,10.2,5,10.2z"/></symbol>
    <symbol id="img-os-sent" 	viewBox="0 0 16 16"><path d="M8,16C6.2,16,2.4,8.3,2.4,5.6C2.4,2.5,4.9,0,8,0s5.6,2.5,5.6,5.6C13.6,8.3,9.8,16,8,16z M8,0.5 c-2.8,0-5.1,2.3-5.1,5.1c0,2.9,3.8,9.9,5.1,9.9c1.2,0,5.1-7,5.1-9.9C13.1,2.8,10.8,0.5,8,0.5z M10.4,6.1c-0.3,0-0.5-0.3-0.5-0.7 c0-0.4,0.2-0.7,0.5-0.7s0.5,0.3,0.5,0.7C10.9,5.7,10.7,6.1,10.4,6.1z M8,8.7C7.1,8.7,6.3,8,6.3,7c0-0.1,0.1-0.2,0.2-0.2 c0.1,0,0.2,0.1,0.2,0.2c0,0.7,0.5,1.2,1.2,1.2S9.2,7.7,9.2,7c0-0.1,0.1-0.2,0.2-0.2S9.7,6.9,9.7,7C9.7,8,8.9,8.7,8,8.7z M5.6,6.1 c-0.3,0-0.5-0.3-0.5-0.7c0-0.4,0.2-0.7,0.5-0.7s0.5,0.3,0.5,0.7C6.1,5.7,5.8,6.1,5.6,6.1z"/></symbol>
    <symbol id="img-os-hold" 	viewBox="0 0 16 16"><path d="M13.1,15.9c0,0-0.1,0.1-0.1,0.1c0,0-0.1,0-0.2,0c0,0,0,0-0.1,0l-0.7-0.7l-0.7,0.7c-0.1,0.1-0.2,0.1-0.3,0 l-0.7-0.7l-0.7,0.7c-0.1,0.1-0.2,0.1-0.3,0l-0.7-0.7l-0.7,0.7c-0.1,0.1-0.2,0.1-0.3,0l-0.7-0.7l-0.7,0.7c-0.1,0.1-0.2,0.1-0.3,0 l-0.7-0.7l-0.7,0.7c-0.1,0.1-0.2,0.1-0.3,0l-0.7-0.7l-0.7,0.7c0,0,0,0-0.1,0c-0.1,0-0.1,0-0.2,0c0,0-0.1-0.1-0.1-0.1 c0,0,0-0.1,0-0.1V3.2c0,0,0,0,0,0c0,0,0,0,0,0c0-0.3,0.3-0.6,0.6-0.6c0,0,0,0,0,0h2.1V3H3.5c0,0,0,0,0,0C3.4,3,3.3,3.1,3.3,3.2 c0,0,0,0,0,0c0,0,0,0,0,0v12.1l0.5-0.5c0,0,0.1-0.1,0.1-0.1s0.1,0,0.1,0.1l0.7,0.7l0.7-0.7c0,0,0.1-0.1,0.1-0.1c0.1,0,0.1,0,0.1,0.1 l0.7,0.7L7,14.8c0,0,0.1-0.1,0.1-0.1c0.1,0,0.1,0,0.1,0.1L8,15.5l0.7-0.7c0,0,0.1-0.1,0.1-0.1c0.1,0,0.1,0,0.1,0.1l0.7,0.7l0.7-0.7 c0,0,0.1-0.1,0.1-0.1c0.1,0,0.1,0,0.1,0.1l0.7,0.7l0.7-0.7c0,0,0.1-0.1,0.1-0.1c0.1,0,0.1,0,0.1,0.1l0.5,0.5V3.2 c0-0.1-0.1-0.2-0.2-0.2h-2.1V2.6h2.1c0.3,0,0.6,0.3,0.6,0.6L13.1,15.9C13.1,15.8,13.1,15.9,13.1,15.9z M9.8,1.3l0.9-1H9.9V0h1.3v0.2 l-0.9,1h0.9v0.3H9.8L9.8,1.3L9.8,1.3z M10.9,9.8c0.1,0,0.2,0.1,0.2,0.2s-0.1,0.2-0.2,0.2H9.8c-0.1,0-0.2-0.1-0.2-0.2 c0-0.1,0.1-0.2,0.2-0.2H10.9z M9.8,12.1c0,0.1-0.1,0.2-0.2,0.2H6.4c-0.1,0-0.2-0.1-0.2-0.2c0-0.1,0.1-0.2,0.2-0.2h3.2 C9.7,11.9,9.8,12,9.8,12.1z M7,3.4l1.5-1.8H7V1.1h2.2v0.4L7.7,3.4h1.5v0.5H7V3.4z M6.2,10.2H5.1c-0.1,0-0.2-0.1-0.2-0.2 c0-0.1,0.1-0.2,0.2-0.2h1.1c0.1,0,0.2,0.1,0.2,0.2C6.4,10.1,6.3,10.2,6.2,10.2z"/></symbol>
    <symbol id="img-os-cancel"	viewBox="0 0 16 16"><path d="M14,15.9c0,0.1-0.1,0.1-0.1,0.1c-0.1,0-0.1,0-0.2,0c0,0-0.1,0-0.1-0.1l-0.8-0.8l-0.8,0.8 c-0.1,0.1-0.2,0.1-0.3,0l-0.8-0.8l-0.8,0.8C10,16,9.9,16,9.8,15.9L9,15.1l-0.8,0.8c-0.1,0.1-0.2,0.1-0.3,0L7,15.1l-0.8,0.8 C6.1,16,6,16,5.9,15.9l-0.8-0.8l-0.8,0.8C4.2,16,4,16,3.9,15.9l-0.8-0.8l-0.8,0.8c0,0,0,0-0.1,0.1c-0.1,0-0.1,0-0.2,0 C2,16,2,15.9,2,15.9c0,0,0-0.1,0-0.1v-15c0,0,0,0,0,0c0,0,0,0,0,0C1.9,0.3,2.3,0,2.7,0c0,0,0,0,0,0h10.7c0.4,0,0.7,0.3,0.7,0.7 L14,15.9C14.1,15.8,14.1,15.8,14,15.9z M13.6,0.7c0-0.1-0.1-0.2-0.2-0.2H2.7c0,0,0,0,0,0c-0.1,0-0.2,0.1-0.2,0.2c0,0,0,0,0,0 c0,0,0,0,0,0v14.4L3,14.6c0,0,0.1-0.1,0.2-0.1c0.1,0,0.1,0,0.2,0.1l0.8,0.8l0.8-0.8c0,0,0.1-0.1,0.2-0.1c0.1,0,0.1,0,0.2,0.1 l0.8,0.8l0.8-0.8c0,0,0.1-0.1,0.2-0.1c0.1,0,0.1,0,0.2,0.1L8,15.4l0.8-0.8c0,0,0.1-0.1,0.2-0.1c0.1,0,0.1,0,0.2,0.1l0.8,0.8l0.8-0.8 c0,0,0.1-0.1,0.2-0.1c0.1,0,0.1,0,0.2,0.1l0.8,0.8l0.8-0.8c0,0,0.1-0.1,0.2-0.1c0.1,0,0.1,0,0.2,0.1l0.6,0.6L13.6,0.7L13.6,0.7z M7.6,9.3h0.8v0.9H7.6V9.3z M7.6,5.8h0.8v2.8H7.6V5.8z"/></symbol>
    <symbol id="img-bill" 		viewBox="0 0 16 16"><path d="M12.9,5.4H9.2V0.5C9.2,0.2,9,0,8.7,0h-7C1.4,0,1.2,0.2,1.2,0.5v13.5c0,0,0,0,0,0c0,1.1,0.9,1.9,1.9,1.9h7 c1.1,0,1.9-0.9,1.9-1.9v-2.9h2.3c0.3,0,0.5-0.2,0.5-0.5V7.3C14.8,6.2,13.9,5.4,12.9,5.4z M3.1,14.9c-0.5,0-0.9-0.4-0.9-0.9 c0,0,0,0,0,0v-13h5.9v13c0,0.3,0.1,0.6,0.2,0.9H3.1z M11,7.3C11,7.3,11,7.3,11,7.3l0,6.8c0,0.5-0.4,0.9-0.9,0.9 c-0.5,0-0.9-0.4-0.9-0.9V6.4h2C11,6.7,11,7,11,7.3z M13.8,10.2H12V7.3c0,0,0,0,0,0c0-0.5,0.4-0.9,0.9-0.9c0.5,0,0.9,0.4,0.9,0.9 V10.2z M6.5,3.1H3.9c-0.3,0-0.5,0.2-0.5,0.5c0,0.3,0.2,0.5,0.5,0.5h2.5C6.8,4.1,7,3.9,7,3.6C7,3.3,6.8,3.1,6.5,3.1z M6.5,7H3.9 C3.6,7,3.4,7.2,3.4,7.5c0,0.3,0.2,0.5,0.5,0.5h2.5C6.8,8.1,7,7.8,7,7.5C7,7.2,6.8,7,6.5,7z M6.5,10.9H3.9c-0.3,0-0.5,0.2-0.5,0.5 c0,0.3,0.2,0.5,0.5,0.5h2.5C6.8,12,7,11.8,7,11.5C7,11.2,6.8,10.9,6.5,10.9z"/></symbol>
    <symbol id="img-track" 		viewBox="0 0 16 16"><path d="M6.6,5.4C6.8,5.3,6.9,5,6.8,4.7C6.7,4.5,6.4,4.4,6.1,4.5C4.4,5.4,3.7,7.4,4.1,9c0.5,1.9,2.2,3,3.8,3 c0.8,0,1.6-0.2,2.2-0.6c1.4-0.9,2.2-2.6,1.7-4.5c-0.1-0.3-0.4-0.4-0.6-0.3c-0.3,0.1-0.4,0.4-0.3,0.6c0.2,0.5,0.1,1.1,0,1.7 c-0.4,1.4-1.8,2.3-3.2,2.1c-1.1-0.1-2.2-1-2.5-2.1C4.7,7.3,5.6,5.9,6.6,5.4z M13.8,2.5c-0.1-0.2-0.2-0.3-0.3-0.4C12,0.8,10,0,7.9,0 c0,0-0.1,0-0.1,0C7.6,0.1,7.5,0.3,7.5,0.5c0,2.5,0,5,0,7.4c0,0.2,0.1,0.4,0.3,0.5c0.2,0.1,0.4,0,0.6-0.1l5.3-5.3 C13.8,2.9,13.8,2.7,13.8,2.5z M14.8,3.8c-0.1-0.2-0.5-0.3-0.7-0.1c-0.2,0.1-0.3,0.5-0.1,0.7C14.7,5.5,15,7,15,8.4 c-0.2,2.8-2.1,5.4-4.9,6.3c-3,0.9-6.8-0.3-8.4-3.7C1,9.6,0.9,8.1,1.1,6.7c0.6-2.9,2.8-4.9,5.2-5.4c0.1,0,0.2-0.1,0.3-0.2 c0.2-0.2,0.2-0.5,0-0.7C6.6,0.2,6.3,0.1,6.1,0.2C4.2,0.7,1.9,2,0.6,4.8c-1,2.2-1.4,6.8,2.6,9.7c1.2,0.9,2.6,1.4,4.1,1.5 c2.8,0.2,5.7-1.1,7.4-3.7C16,10.3,16.8,6.9,14.8,3.8z"/></symbol>
    <symbol id="img-facebook" 	viewBox="0 0 16 16"><path d="M9.4,16V8.7H12l0.4-2.8H9.4V4c0-0.8,0.2-1.4,1.5-1.4h1.6V0.1c-0.3,0-1.3-0.1-2.4-0.1 c-2.4,0-4,1.3-4,3.7v2.1H3.5v2.8h2.7V16H9.4L9.4,16z"/></symbol>
    <symbol id="img-twitter" 	viewBox="0 0 20 16"><path d="M9.9,5c0,0-5,0-8.5-4.2c0,0-1.9,2.9,1.3,5.4c0,0-1,0-1.9-0.5c0,0-0.2,3,3.2,4c0,0-1,0.3-1.8,0 c0,0,0.5,2.5,3.8,2.8c0,0-2.6,2.1-6.1,1.7c0,0,2.8,1.9,6,1.8C18.1,15.6,18,4,18,4s1.6-1.3,2-2.1c0,0-1.6,0.6-2.3,0.6 c0,0,1.3-0.9,1.8-2.2c0,0-1.8,0.9-2.6,0.9c0,0-1-1.3-3-1.3C11.9,0,9.3,1.6,9.9,5z"/></symbol>
    <symbol id="img-googleplus" viewBox="0 0 25 16"><path d="M21.2,9.9v4.4h-2.9V9.9h-3.9V7.1h3.8V2.9h2.9v4.2H25v2.8L21.2,9.9L21.2,9.9z M6.7,16C6.2,16,0.1,16.1,0,8.6V7.6 C0,6.8-0.1,0,6.4,0c3.7,0,5.7,1.8,6.1,5.2H9.5C9.2,3.4,8.2,2.6,6.6,2.6c-4.1,0-3.3,5.9-3.3,5.9c0,1.6,0.3,2.9,0.9,3.7 c1.2,1.7,4.2,1.5,5.3,0.5V10H6.6V7.6h6.1v6.2C11.5,15.2,9.2,16,6.7,16z"/></symbol>
    <symbol id="img-linkedin" 	viewBox="0 0 16 16"><path d="M14.9,16H1.1C0.5,16,0,15.5,0,14.9V1.1C0,0.5,0.5,0,1.1,0h13.8C15.5,0,16,0.5,16,1.1v13.8 C16,15.5,15.5,16,14.9,16z M2.3,13.7h2.4V6H2.3V13.7z M3.6,2.2c-0.7,0-1.3,0.6-1.3,1.3s0.6,1.3,1.3,1.3c0.7,0,1.3-0.6,1.3-1.3 S4.3,2.2,3.6,2.2z M13.7,10.2c0-3.7-1-4.3-2.8-4.3c-1.4,0-2.1,0.7-2.3,0.9V6H6.3v7.7h2.3V9.9c0-1.4,0.6-2,1.5-2 c0.8,0,1.2,0.7,1.2,2.3v3.5h2.4L13.7,10.2L13.7,10.2z"/></symbol>
    <symbol id="img-pinterest" 	viewBox="0 0 16 16"><path d="M8,16c-0.9,0-1.7-0.1-2.4-0.4c0.2-0.2,0.8-1.1,1-1.8c0.2-0.8,0.6-2.2,0.6-2.2s0.4,0.9,1.8,0.9 s4.1-1.4,4.1-5c0-1.7-1.4-4.5-5-4.5S3,5.5,3,7.8c0,2.3,1.7,3.1,1.7,3.1L5,9.8c0,0-0.7-0.6-0.7-2S5.3,4.4,8,4.4s3.3,2.1,3.3,3.3 s-0.6,3.6-2.6,3.6c-0.9,0-1.2-0.6-1.2-1.2s0.7-2.4,0.7-3S7.9,6,7.3,6S5.8,6.7,5.8,8c0,0.8,0.3,1.2,0.3,1.2s-1,4.1-1,4.9 c0,0.5,0,1.1,0.1,1.4C2.1,14.3,0,11.4,0,8c0-4.4,3.6-8,8-8s8,3.6,8,8S12.4,16,8,16z"/></symbol>
    <symbol id="img-whatsapp" 	viewBox="0 0 16 16"><path d="M8.1,15.6c-1.4,0-2.7-0.4-3.8-1L0,16l1.4-4.2c-0.7-1.2-1.1-2.6-1.1-4C0.3,3.5,3.8,0,8.1,0 C12.5,0,16,3.5,16,7.8C16,12.1,12.5,15.6,8.1,15.6z M8.1,1.2c-3.6,0-6.6,2.9-6.6,6.6c0,1.4,0.5,2.8,1.3,3.8L2,14.1l2.5-0.8 c1,0.7,2.3,1.1,3.6,1.1c3.6,0,6.6-2.9,6.6-6.6C14.7,4.2,11.8,1.2,8.1,1.2z M10.3,11.4c-2.3-0.1-5.9-2.9-6-5.4 C4.2,4.3,5.6,4.2,5.9,4.2c0.4,0,0.4,0.6,1,1.7c0.2,0.4-0.8,1.1-0.5,1.4c0.1,0.2,0.5,0.8,1.1,1.3c0.9,0.9,1.7,1,1.9,0.9 c0.4-0.1,0.5-0.8,1-0.9c0.2,0,1.8,0.7,1.8,0.9C12.2,10.9,11,11.5,10.3,11.4z"/></symbol>
    <symbol id="img-tumblr" 	viewBox="0 0 16 16"><path d="M3.4,4.4c0,0,3.1-1.2,3.1-4.4H9v4h2.9v2.8H9c0,0,0,4,0,4.9c0,2.1,2.8,1.2,2.8,1.2l0.8,2.2 c0,0-1.3,0.9-2.9,0.9c-1.6,0-4.4-1-4.4-4.4s0-4.8,0-4.8H3.4L3.4,4.4L3.4,4.4z"/></symbol>

    <!--
	Ícones opcionais
	* Caso exclua um destes sprites, lembre-se de apagar a chamada nas inserções
	-->
    <symbol id="i-menu"     viewBox="0 0 16 16"><path d="M14.4,3.2H1.6C0.7,3.2,0,2.5,0,1.6v0C0,0.7,0.7,0,1.6,0l12.8,0C15.3,0,16,0.7,16,1.6v0 C16,2.5,15.3,3.2,14.4,3.2z M16,14.4L16,14.4c0-0.9-0.7-1.6-1.6-1.6H1.6c-0.9,0-1.6,0.7-1.6,1.6v0C0,15.3,0.7,16,1.6,16h12.8 C15.3,16,16,15.3,16,14.4z M16,8L16,8c0-0.9-0.7-1.6-1.6-1.6H1.6C0.7,6.4,0,7.1,0,8v0c0,0.9,0.7,1.6,1.6,1.6h12.8 C15.3,9.6,16,8.9,16,8z"/></symbol>
    <symbol id="i-search"   viewBox="0 0 16 16"><path d="M6.9,13.9c1.7,0,3.3-0.6,4.5-1.6l3.6,3.6c0.2,0.2,0.6,0.2,0.9,0c0.2-0.2,0.2-0.6,0-0.9l-3.6-3.6 c1-1.2,1.6-2.8,1.6-4.5c0-3.8-3.1-6.9-6.9-6.9S0,3.1,0,6.9S3.1,13.9,6.9,13.9z M6.9,1.2c3.2,0,5.7,2.6,5.7,5.7c0,1.6-0.6,3-1.7,4.1 c0,0,0,0,0,0c0,0,0,0,0,0c-1,1-2.5,1.7-4.1,1.7c-3.2,0-5.7-2.6-5.7-5.7S3.8,1.2,6.9,1.2z"/></symbol>
    <symbol id="i-cart"     viewBox="0 0 16 16"><path d="M15.2,15.5l-0.9-11c0-0.2-0.2-0.4-0.4-0.4h-2V3.9C11.9,1.8,10.2,0,8,0S4.1,1.8,4.1,3.9v0.2h-2 c-0.2,0-0.4,0.2-0.4,0.4L0.8,15.6c0,0.1,0,0.2,0.1,0.3C1,16,1.1,16,1.2,16h13.7c0,0,0,0,0,0C15,16,15.2,15.8,15.2,15.5 C15.2,15.6,15.2,15.5,15.2,15.5z M4.9,3.9c0-1.7,1.4-3.1,3.1-3.1s3.1,1.4,3.1,3.1v0.2H4.9V3.9z M1.6,15.2L2.5,4.9h1.6v0.6 C3.8,5.7,3.7,5.9,3.7,6.2C3.7,6.7,4,7,4.5,7s0.8-0.4,0.8-0.8c0-0.3-0.2-0.6-0.4-0.7V4.9h6.3v0.6c-0.2,0.1-0.4,0.4-0.4,0.7 c0,0.4,0.4,0.8,0.8,0.8s0.8-0.4,0.8-0.8c0-0.3-0.2-0.6-0.4-0.7V4.9h1.6l0.9,10.3H1.6L1.6,15.2z"/></symbol>
    <symbol id="i-wish"     viewBox="0 0 16 16"><path d="M2,9.2C0.6,7.6,0,5.9,0,4.4C0,1.7,1.5,0,3.8,0C6,0,6.7,1.1,8,2.8C9.3,1.1,10,0,12.2,0 C14.5,0,16,1.7,16,4.4c0,1.5-0.6,3.2-2,4.8L8,16L2,9.2z"/></symbol>
    <symbol id="i-user"     viewBox="0 0 16 16">
        <path class="female" d="M8,0C6.2,0,3.7,1.2,3.7,3.9v1.5C3.1,5.4,2.7,6,2.7,6.6s0.5,1.1,1.1,1.2c-0.1,2.4-0.8,5.6-2.4,6 C1.6,15,2.6,16,3.4,16h9.3c0.5,0,1.8-0.6,2.3-2.2c-1.7-0.3-2.7-3.7-2.7-6c0.6-0.1,1.1-0.6,1.1-1.2s-0.5-1.1-1.1-1.2V3.9 C12.3,1.9,11.4,0,8,0z M8.7,13.3c0,0.6-1.5,0.5-1.5,0v-0.9c0.1,0.1,1.3,0.1,1.5,0V13.3z M12.6,6.6c0,0.3-0.2,0.6-0.6,0.6 c-0.1,0-0.5,0-0.5,0v1.4c0,1.8-1.4,3.2-3.2,3.2H7.6c-1.8,0-3.2-1.4-3.2-3.2V7.1l-0.5,0c-0.3,0-0.6-0.2-0.6-0.6S3.6,6,3.9,6l0.5,0 V4.3c2.9,0.6,3.7-1,4.7-1c1,0,1.6,1.8,1.6,1.8c0.8-0.4,0.8-0.8,0.8-1V6c0,0,0.5,0,0.5,0C12.4,6,12.6,6.3,12.6,6.6z M8,8.2 c0.3,0,0.5-0.2,0.5-0.4c0-0.2-0.2-0.4-0.5-0.4c-0.3,0-0.5,0.2-0.5,0.4C7.5,8,7.7,8.2,8,8.2z M10,6C9.7,6,9.4,6.3,9.4,6.6 S9.7,7.1,10,7.1c0.3,0,0.5-0.2,0.5-0.5S10.3,6,10,6z M6.6,6.6C6.6,6.3,6.3,6,6,6S5.5,6.3,5.5,6.6S5.7,7.1,6,7.1S6.6,6.9,6.6,6.6z M10.1,8.8c-0.2-0.1-0.4,0-0.4,0.2C9.3,9.6,8.7,10,8,10c-0.7,0-1.3-0.4-1.6-1C6.3,8.8,6.1,8.7,5.9,8.8C5.7,8.8,5.7,9,5.7,9.2 C6.2,10.1,7,10.7,8,10.7c1,0,1.8-0.6,2.3-1.4C10.3,9,10.3,8.8,10.1,8.8z"/>
        <path class="male" d="M8,0C6.2,0,3.7,1.2,3.7,3.9v1.5C3.1,5.4,2.7,6,2.7,6.6s0.5,1.1,1.1,1.2v0.7c0,1.8,1.2,3.3,2.9,3.8 v0.3c-2.8,0-3.8,3.4-3.8,3.4h10.5c0,0-1.2-3.4-3.8-3.4v-0.3c1.6-0.5,2.9-2,2.9-3.8V7.8c0.6-0.1,1.1-0.6,1.1-1.2s-0.5-1.1-1.1-1.2 V5.1c2-0.4,2.2-1.4,2.2-1.8C12.8,3.6,11.4,0,8,0z M8.7,13.3c0,0.6-1.5,0.5-1.5,0v-0.9c0.1,0.1,1.3,0.1,1.5,0V13.3z M12.6,6.6 c0,0.3-0.2,0.6-0.6,0.6c-0.1,0-0.5,0-0.5,0v1.4c0,1.8-1.4,3.2-3.2,3.2H7.6c-1.8,0-3.2-1.4-3.2-3.2V7.1l-0.5,0 c-0.3,0-0.6-0.2-0.6-0.6S3.6,6,3.9,6l0.5,0l0.8-2.2C6,4.3,7.8,5.5,11.6,5.2V6c0,0,0.5,0,0.5,0C12.4,6,12.6,6.3,12.6,6.6z M8,8.2 c0.3,0,0.5-0.2,0.5-0.4c0-0.2-0.2-0.4-0.5-0.4c-0.3,0-0.5,0.2-0.5,0.4C7.5,8,7.7,8.2,8,8.2z M10,6C9.7,6,9.4,6.3,9.4,6.6 S9.7,7.1,10,7.1c0.3,0,0.5-0.2,0.5-0.5S10.3,6,10,6z M6.6,6.6C6.6,6.3,6.3,6,6,6S5.5,6.3,5.5,6.6S5.7,7.1,6,7.1S6.6,6.9,6.6,6.6z M10.1,8.8c-0.2-0.1-0.4,0-0.4,0.2C9.3,9.6,8.7,10,8,10c-0.7,0-1.3-0.4-1.6-1C6.3,8.8,6.1,8.7,5.9,8.8C5.7,8.8,5.7,9,5.7,9.2 C6.2,10.1,7,10.7,8,10.7c1,0,1.8-0.6,2.3-1.4C10.3,9,10.3,8.8,10.1,8.8z"/>
    </symbol>
    <!-- Tema Agro SPI -->
    <symbol viewBox="0 0 20.24 18.01" id="z-alert" xmlns="http://www.w3.org/2000/svg"><g data-name="Camada 2"><path d="M20 15.48L11.6.85a1.62 1.62 0 00-.9-.75 1.77 1.77 0 00-1.16 0 1.58 1.58 0 00-.9.75L.2 15.48a1.82 1.82 0 00-.2 1.14 1.69 1.69 0 00.56 1 1.61 1.61 0 001.12.38h16.88a1.61 1.61 0 001.09-.41 1.69 1.69 0 00.56-1 1.76 1.76 0 00-.21-1.11zm-9.91-3a1.64 1.64 0 011.62 1.62 1.53 1.53 0 01-.48 1.14 1.56 1.56 0 01-1.14.48 1.64 1.64 0 01-1.59-1.65 1.56 1.56 0 01.5-1.14 1.53 1.53 0 011.12-.48zM8.57 6.65a.45.45 0 01.12-.33A.44.44 0 019 6.2h2.25a.41.41 0 01.3.12.45.45 0 01.13.33l-.29 4.78a.37.37 0 01-.12.27.41.41 0 01-.3.12h-1.7A.4.4 0 019 11.7a.35.35 0 01-.13-.27z" data-name="Camada 1"/></g></symbol>
    <symbol viewBox="0 0 98.76 35.43" id="z-cart" xmlns="http://www.w3.org/2000/svg"><g data-name="Camada 2"><path d="M75.67 22a4.62 4.62 0 104.65 4.62A4.63 4.63 0 0075.67 22zm0 7.74a3.13 3.13 0 113.14-3.12 3.14 3.14 0 01-3.14 3.14zm22.46-9.28l-.51-.21-.62-9.86a1 1 0 00-1-.94H67.54l-1.41-8.14a1 1 0 00-.94-.82C63 .38 43.45-.58 39.9.53 33.07 2.67 26.55 7.89 25.17 9c-2.17.2-14 1.14-18.17 2.21a7.49 7.49 0 00-5.43 6.54 5.45 5.45 0 00-1.42 2.4 12.62 12.62 0 00.45 5.12c.17.39.64 1 6.45 2.92a8.84 8.84 0 0017.22.74h42.87a8.85 8.85 0 0017.23-.74c1.91-.08 9.32-.45 11.31-1.25 2.55-1 3-5 3.07-5.44a1 1 0 00-.62-1.02zm-2.57-1.09a1.47 1.47 0 01-.56-.17 51.92 51.92 0 01-2.08-5.52l2.22-.89zM65 19.46c-.27.89-1.73 4.75-2 5.59H47.84l.49-3.28v-.06c0-.05-.41-5.6-.37-6.73 0-.82.1-2.17.14-2.88q3.46-.15 7.54-.37l1.11-.06c.49 0 2.59-.8 6.23-2.38a.81.81 0 00.18-.12 6.18 6.18 0 002.57 2.14 34.9 34.9 0 01-.73 8.15zm-16.42-8.87V4.24c4.9 0 10.52.22 12.28.29l.94 3.64c-2.26 1-4.63 1.93-5.09 2l-1.15.06c-2.56.15-4.88.27-6.98.36zm-41.9 2.82a12.08 12.08 0 011.73.33 17.19 17.19 0 01-1.74 2A20.56 20.56 0 014.24 17L4 16.2a5 5 0 012.68-2.79zM2.85 24.55c-.22-.1-.4-.18-.52-.25-.07-.28-.15-.77-.22-1.31l.47-1.06 1 1.84c-.22.28-.5.55-.73.78zm12.84 8.89a6.81 6.81 0 116.85-6.8 6.83 6.83 0 01-6.85 6.8zm60 0a6.81 6.81 0 116.84-6.8 6.83 6.83 0 01-6.86 6.8zm8.82-7.24a8.84 8.84 0 00-17.67.44v.3H24.53v-.3a8.84 8.84 0 00-17.66-.58 64.04 64.04 0 01-3-1.09l.76-.77a.52.52 0 00.08-.59L3 20.57a.51.51 0 00-.9 0v.06a.19.19 0 010-.08A3.82 3.82 0 013.17 19a1 1 0 00.33-.7v-.21a.49.49 0 00.4.21.54.54 0 00.21-.05 31 31 0 003.15-1.62 25.54 25.54 0 002.38-2.83.5.5 0 00-.24-.8l-.5-.13c5.36-1 16.62-1.83 16.74-1.84a1.06 1.06 0 00.59-.24c.07-.06 7.13-6.09 14.27-8.32 2.6-.82 17.35-.31 23.79 0 0 0 1.42 8.29 1.42 8.34a6.54 6.54 0 01-2.29-2.1c0-.08-1.24-5-1.24-5a.74.74 0 00-.69-.56c-.66 0-16.15-.71-20.34 0s-12.66 7-13 7.25a.75.75 0 00-.29.68l-.1 9.45a.36.36 0 000 .11 16.08 16.08 0 011.41 4.77.25.25 0 00.25.21h33.7a.24.24 0 00.23-.16c.08-.19 1.83-4.77 2.13-5.79a35.23 35.23 0 00.75-8.27 1 1 0 00.46.12h28.38v.29l-3 1.19a.49.49 0 00-.28.62c.73 2.18 2 5.9 2.45 6.34a2.76 2.76 0 001.34.53v.6h-.35a.5.5 0 00-.41.2l-3.24 4.44c-2.14.19-4.96.37-7.09.47zM37.32 12.37c2.8 0 6.22-.08 10.28-.25 0 .72-.11 2-.14 2.84 0 1.13.33 6.29.37 6.76l-.5 3.33H29.64a16.56 16.56 0 00-1.4-4.64l.14-8.76c1.23.48 4.18.72 8.94.72zm-7-1.8c2.53-1.78 8.07-5.52 11.06-6a47.48 47.48 0 016.17-.31v6.39c-10.29.4-15.04.22-17.2-.08zm64.61 14.52a9.75 9.75 0 01-1.9.41l2.53-3.5h1.08c-.24 1.16-.8 2.72-1.71 3.09zM15.69 22a4.62 4.62 0 104.65 4.62A4.64 4.64 0 0015.69 22zm0 7.74a3.13 3.13 0 113.15-3.12 3.13 3.13 0 01-3.15 3.14z" data-name="Camada 1"/></g></symbol>
    <symbol viewBox="0 0 19.25 18.73" id="z-next" xmlns="http://www.w3.org/2000/svg"><g data-name="Camada 2"><path d="M8.16 1.25a.94.94 0 00-.28.75 1.12 1.12 0 00.33.73l5.15 4.94H1A1 1 0 00.3 8a1 1 0 00-.3.73v1.37a1 1 0 00.3.74 1 1 0 00.73.3h12.33L8.21 16a1.1 1.1 0 00-.33.73 1 1 0 00.28.73l1 .94a1 1 0 00.73.3 1 1 0 00.73-.3L19 10.1a1 1 0 00.3-.73 1 1 0 00-.3-.73L10.61.3a1 1 0 00-.73-.3 1 1 0 00-.73.3z" data-name="Camada 1"/></g></symbol>
    <symbol viewBox="0 0 19.25 18.73" id="z-prev" xmlns="http://www.w3.org/2000/svg"><g data-name="Camada 2"><path d="M11.09 17.49a1 1 0 00.28-.73A1.1 1.1 0 0011 16l-5.11-4.91h12.33a1 1 0 00.73-.3 1 1 0 00.3-.74V8.68a1 1 0 00-1-1H5.89L11 2.71a1.12 1.12 0 00.37-.71.94.94 0 00-.28-.73L10.1.3a1 1 0 00-.73-.3 1 1 0 00-.73.3L.3 8.64a1 1 0 00-.3.73 1 1 0 00.3.73l8.34 8.33a1 1 0 00.73.3 1 1 0 00.73-.3z" data-name="Camada 1"/></g></symbol>
    <symbol viewBox="0 0 16 16" id="z-search" xmlns="http://www.w3.org/2000/svg"><g data-name="Camada 2"><path d="M15.78 13.84a.76.76 0 010 1.07l-.87.87a.76.76 0 01-1.07 0l-3.12-3.12a.73.73 0 01-.22-.54v-.5a6.29 6.29 0 01-4 1.38 6.26 6.26 0 01-3.27-.88A6.56 6.56 0 01.87 9.77 6.35 6.35 0 010 6.5a6.35 6.35 0 01.87-3.27A6.56 6.56 0 013.23.88 6.26 6.26 0 016.5 0a6.26 6.26 0 013.27.88 6.56 6.56 0 012.36 2.35A6.35 6.35 0 0113 6.5a6.34 6.34 0 01-1.37 4h.5a.73.73 0 01.53.22zM6.5 10.5A4 4 0 008.52 3a4 4 0 00-4 6.94 4 4 0 001.98.56z" data-name="Camada 1"/></g></symbol>
    <symbol viewBox="0 0 25.19 25.19" id="z-user" xmlns="http://www.w3.org/2000/svg"><g data-name="Camada 2"><path d="M12.59 4.88a4.85 4.85 0 014.88 4.87 4.85 4.85 0 01-4.88 4.87 4.85 4.85 0 01-4.87-4.87 4.85 4.85 0 014.87-4.87zm0 7.31A2.42 2.42 0 0015 9.75 2.44 2.44 0 0010.87 8a2.34 2.34 0 00-.71 1.73 2.42 2.42 0 002.43 2.44zm0-12.19a12.25 12.25 0 016.3 1.7 12.84 12.84 0 014.6 4.6 12.24 12.24 0 011.7 6.29 12.25 12.25 0 01-1.7 6.3 12.84 12.84 0 01-4.6 4.6 12.25 12.25 0 01-6.3 1.7 12.24 12.24 0 01-6.29-1.7 12.84 12.84 0 01-4.6-4.6 12.25 12.25 0 01-1.7-6.3A12.24 12.24 0 011.7 6.3a12.84 12.84 0 014.6-4.6A12.24 12.24 0 0112.59 0zm0 22.75a10 10 0 003.56-.63 10.48 10.48 0 003.05-1.81 4.14 4.14 0 00-1.5-1.44 4.5 4.5 0 00-2-.59 9.92 9.92 0 01-3.07.51 9.92 9.92 0 01-3.07-.51 4.56 4.56 0 00-2.06.59A4 4 0 006 20.31a10.48 10.48 0 003 1.81 10 10 0 003.59.63zm8.28-4.27a9.93 9.93 0 001.88-5.89 9.87 9.87 0 00-1.37-5.07 10.23 10.23 0 00-3.71-3.71 9.81 9.81 0 00-5.08-1.37 9.77 9.77 0 00-5.07 1.37 10.15 10.15 0 00-3.71 3.71 9.77 9.77 0 00-1.37 5.07 9.87 9.87 0 001.88 5.89 7.14 7.14 0 012.36-1.93 6.5 6.5 0 013-.71 2.74 2.74 0 01.71.16 8.28 8.28 0 002.23.35 8.28 8.28 0 002.21-.35 2.66 2.66 0 01.71-.16 6.5 6.5 0 013 .71 7.14 7.14 0 012.33 1.93z" data-name="Camada 1"/></g></symbol>
    <symbol viewBox="0 0 22.75 22.75" id="z-whatsapp" xmlns="http://www.w3.org/2000/svg"><g data-name="Camada 2"><path d="M19.35 3.3A11.75 11.75 0 0121.86 7a10.93 10.93 0 01-.66 9.93A11.46 11.46 0 0117 21a11 11 0 01-5.66 1.53A11 11 0 016 21.18l-6 1.57 1.62-5.84A11 11 0 01.1 11.27a10.93 10.93 0 011.52-5.63 11.46 11.46 0 014.12-4.12A10.94 10.94 0 0111.38 0a11.14 11.14 0 014.29.86 12 12 0 013.68 2.44zm-8 17.37a9.31 9.31 0 004.75-1.27 9.77 9.77 0 003.48-3.4 9 9 0 001.29-4.7 8.65 8.65 0 00-.76-3.55A10 10 0 0018 4.65a9.22 9.22 0 00-6.62-2.77 9.06 9.06 0 00-4.7 1.27 9.48 9.48 0 00-3.43 3.43A9 9 0 002 11.27a9 9 0 001.47 5l.21.36-1 3.45 3.56-.92.35.21a9.08 9.08 0 004.79 1.3zm5.12-7.06l.16.1a1 1 0 01.4.25 1.31 1.31 0 010 .51 2.72 2.72 0 01-.21.84 2 2 0 01-.81.86 2.6 2.6 0 01-1.09.49 5.23 5.23 0 01-1.37 0 11.11 11.11 0 01-2-.71 11.51 11.51 0 01-4.72-4.17l-.11-.1a5.14 5.14 0 01-1.08-2.89 3.19 3.19 0 01.91-2.29 1.06 1.06 0 01.76-.36H8a.62.62 0 01.33.08.69.69 0 01.23.38l.86 2.08a.57.57 0 01.06.51 3.47 3.47 0 01-.66.91 1.38 1.38 0 00-.26.33.27.27 0 00.1.28 6.77 6.77 0 001.68 2.09 13.3 13.3 0 002.1 1.2c.27.13.48.11.61-.06.44-.5.75-.88.91-1.11s.16-.21.26-.21a1.22 1.22 0 01.35.06c.28.12.92.42 1.93.93z" data-name="Camada 1"/></g></symbol>
</svg>